<?xml version="1.0" encoding="UTF-8"?>
<svg width="512" height="512" viewBox="0 0 512 512" fill="none" xmlns="http://www.w3.org/2000/svg">
  <!-- Background -->
  <rect width="512" height="512" rx="64" fill="#1A1A2E"/>
  
  <!-- Gradient Definition -->
  <defs>
    <linearGradient id="gradient" x1="0%" y1="0%" x2="100%" y2="100%">
      <stop offset="0%" style="stop-color:#9D4EDD;stop-opacity:1" />
      <stop offset="50%" style="stop-color:#6A4C93;stop-opacity:1" />
      <stop offset="100%" style="stop-color:#A855F7;stop-opacity:1" />
    </linearGradient>
    
    <filter id="glow">
      <feGaussianBlur stdDeviation="4" result="coloredBlur"/>
      <feMerge>
        <feMergeNode in="coloredBlur"/>
        <feMergeNode in="SourceGraphic"/>
      </feMerge>
    </filter>
  </defs>
  
  <!-- Main Icon - Lottery Ball Style L -->
  <circle cx="256" cy="256" r="160" fill="url(#gradient)" filter="url(#glow)"/>
  
  <!-- Inner Circle -->
  <circle cx="256" cy="256" r="140" fill="none" stroke="#F1F1F1" stroke-width="2" opacity="0.3"/>
  
  <!-- Letter L -->
  <path d="M 200 180 L 200 300 L 280 300 L 280 270 L 230 270 L 230 180 Z" fill="#F1F1F1" />
  
  <!-- Letter D -->
  <path d="M 290 180 L 290 300 L 320 300 Q 360 300 360 240 Q 360 180 320 180 Z M 320 210 Q 330 210 330 240 Q 330 270 320 270 L 320 210 Z" fill="#F1F1F1" />
  
  <!-- Decorative Dots -->
  <circle cx="180" cy="140" r="8" fill="#C084FC" opacity="0.8"/>
  <circle cx="332" cy="140" r="8" fill="#C084FC" opacity="0.8"/>
  <circle cx="180" cy="372" r="8" fill="#C084FC" opacity="0.8"/>
  <circle cx="332" cy="372" r="8" fill="#C084FC" opacity="0.8"/>
  
  <!-- Shine Effect -->
  <ellipse cx="220" cy="220" rx="40" ry="60" fill="#FFFFFF" opacity="0.1" transform="rotate(-45 220 220)"/>
</svg>